<?xml version="1.0" encoding="UTF-8"?>
<svg xmlns="http://www.w3.org/2000/svg" fill="#fff" id="outline" viewBox="0 0 64 64" width="512" height="512"><path d="M57.6,51.055a8.517,8.517,0,0,0-6.392-7.25L39,40.371V35.635c2.409-1.975,4.505-4.659,4.916-7.635H47.8A3.2,3.2,0,0,0,51,24.8V21.2a3.192,3.192,0,0,0-1.82-2.873A15.965,15.965,0,0,0,49.3,16.5C49.3,10.337,47.051,0,32,0S14.7,10.337,14.7,16.5a15.965,15.965,0,0,0,.119,1.827A3.192,3.192,0,0,0,13,21.2v3.6A3.2,3.2,0,0,0,16.2,28h3.887c.411,2.968,2.5,5.647,4.915,7.62v4.751L12.823,43.8A8.531,8.531,0,0,0,6.4,51.055L5.007,62.883a1,1,0,0,0,.876,1.11A.945.945,0,0,0,6,64a1,1,0,0,0,.992-.883L8.385,51.289a6.533,6.533,0,0,1,4.946-5.559l6.137-1.725,5.7,8.55a1,1,0,0,0,.688.434A.873.873,0,0,0,26,53a1,1,0,0,0,.64-.231L31,49.135v6.842a1,1,0,1,0,2,0V49.135l4.36,3.634A1,1,0,0,0,38,53a.873.873,0,0,0,.144-.011,1,1,0,0,0,.688-.434L44.532,44,50.7,45.739a6.519,6.519,0,0,1,4.912,5.55l1.392,11.828A1,1,0,0,0,58,64a.945.945,0,0,0,.118-.007,1,1,0,0,0,.876-1.11ZM20.073,18h-.338C20,9.147,23.818,5,31.709,5c7.458,0,11.275,3.706,11.9,11.585a4.752,4.752,0,0,0-4.653-3.659,9.681,9.681,0,0,0-3.984.992,7.3,7.3,0,0,1-2.97.79,7.3,7.3,0,0,1-2.97-.79,9.681,9.681,0,0,0-3.984-.992C21.625,12.926,20.364,15.843,20.073,18ZM49,24.8A1.2,1.2,0,0,1,47.8,26H44V20h3.8A1.2,1.2,0,0,1,49,21.2ZM32,2C44.645,2,47.3,9.884,47.3,16.5a13.714,13.714,0,0,1-.092,1.5H45.682C45.4,7.92,40.828,3,31.709,3S18.02,7.92,17.736,18h-.943a13.73,13.73,0,0,1-.092-1.5C16.7,9.884,19.355,2,32,2ZM15,24.8V21.2A1.2,1.2,0,0,1,16.2,20H20v6H16.2A1.2,1.2,0,0,1,15,24.8Zm7,2.155V19c0-.167.057-4.077,3.046-4.077a7.818,7.818,0,0,1,3.2.833,9.087,9.087,0,0,0,3.75.949,9.087,9.087,0,0,0,3.75-.949,7.818,7.818,0,0,1,3.2-.833C41.943,14.926,42,18.836,42,19v7.307l-4.718,1.769A2.983,2.983,0,1,0,38,30c0-.019-.005-.036-.006-.055l3.768-1.413C40.491,33.157,34.093,37,32.023,37,29.71,37,22,32.252,22,26.957ZM36,30a1,1,0,1,1-1-1A1,1,0,0,1,36,30Zm-3.977,9A10.926,10.926,0,0,0,37,37.077v3.509l-5,5-5-5V37.061A11.035,11.035,0,0,0,32.023,39ZM26.215,50.52l-4.723-7.085,4.316-1.213,4.711,4.711Zm11.57,0-4.3-3.587,4.711-4.711,4.316,1.213Z"/><path d="M32,59a1,1,0,0,0-1,1v3a1,1,0,0,0,2,0V60A1,1,0,0,0,32,59Z"/></svg>
