<svg id="Layer_1" fill="#fff" enable-background="new 0 0 64 64" height="512" viewBox="0 0 64 64" width="512" xmlns="http://www.w3.org/2000/svg"><g><path d="m59.506 27.903c-.245-6.981-3.072-13.509-8.036-18.473-5.203-5.204-12.118-8.069-19.47-8.069-14.849 0-26.982 11.819-27.505 26.542-2.266 1.007-3.852 3.275-3.852 5.911v7.262c0 3.566 2.901 6.468 6.468 6.468 2.308 0 4.185-1.877 4.185-4.185v-11.829c0-2.167-1.662-3.934-3.775-4.144.78-12.827 11.458-23.025 24.479-23.025 6.552 0 12.713 2.554 17.35 7.191 4.258 4.258 6.75 9.808 7.125 15.835-2.111.212-3.77 1.978-3.77 4.143v11.828c0 2.185 1.688 3.963 3.826 4.148v2.989c0 3.366-2.739 6.104-6.105 6.104h-4.521c-.222-.634-.57-1.22-1.058-1.706-.855-.859-1.995-1.332-3.209-1.332h-4.66c-.669 0-1.311.142-1.899.416-1.604.737-2.64 2.355-2.64 4.122 0 1.214.473 2.354 1.33 3.207.857.859 1.997 1.332 3.209 1.332h4.66c1.932 0 3.635-1.249 4.27-3.039h4.518c5.021 0 9.105-4.084 9.105-9.104v-3.523c2.252-1.013 3.826-3.273 3.826-5.898v-7.262c0-2.634-1.586-4.902-3.851-5.909zm-51.211 3.627v11.828c0 .653-.531 1.185-1.185 1.185-1.912 0-3.468-1.556-3.468-3.468v-7.262c0-1.913 1.556-3.468 3.468-3.468.654 0 1.185.532 1.185 1.185zm34.848 26.891c-.149.706-.783 1.219-1.506 1.219h-4.66c-.41 0-.795-.16-1.089-.454-.29-.289-.45-.675-.45-1.085 0-.599.351-1.146.901-1.399.196-.092.411-.139.638-.139h4.66c.41 0 .795.159 1.088.453.29.289.45.675.45 1.085.001.11-.011.22-.032.32zm17.214-17.346c0 1.912-1.556 3.468-3.468 3.468-.653 0-1.185-.531-1.185-1.185v-11.828c0-.653.531-1.185 1.185-1.185 1.912 0 3.468 1.556 3.468 3.468z"/><path d="m49.043 29c0-9.397-7.646-17.043-17.043-17.043s-17.043 7.646-17.043 17.043 7.646 17.043 17.043 17.043 17.043-7.646 17.043-17.043zm-17.043 14.043c-7.743 0-14.043-6.3-14.043-14.043s6.3-14.043 14.043-14.043 14.043 6.3 14.043 14.043-6.3 14.043-14.043 14.043z"/><path d="m32.014 19.512c-.67 0-1.141.138-1.438.422-.304.29-.451.757-.451 1.427 0 .661.146 1.121.445 1.407.293.278.756.414 1.417.414.67 0 1.141-.138 1.438-.422.303-.29.45-.756.45-1.426 0-.662-.146-1.122-.444-1.406-.291-.28-.755-.416-1.417-.416z"/><path d="m33.093 24.667c-.126-.057-.283-.096-.478-.121-.314-.039-.89-.04-1.217 0-.191.024-.347.062-.478.117-.187.079-.325.195-.413.345-.075.131-.113.273-.113.425v12.137c0 .166.041.317.123.447.087.139.219.244.405.323.131.056.287.094.478.116.159.02.359.031.6.031.249 0 .454-.012.613-.031.194-.023.351-.063.479-.12.165-.074.289-.169.377-.291.098-.135.149-.299.149-.476v-12.136c0-.161-.048-.317-.139-.455-.087-.132-.218-.237-.386-.311z"/></g></svg>