<svg id="&#x421;&#x43B;&#x43E;&#x439;_1" height="512" viewBox="0 0 128 128" width="512" xmlns="http://www.w3.org/2000/svg"><path d="m124.41 51.15c-2-7.09-5.47-10.94-9.09-13l9.43-1.72a2 2 0 1 0 -.72-3.93l-19.03 3.5a2.45 2.45 0 0 0 -.41.12 16 16 0 0 0 -1.78.29l-6.24 1.87c-.46 0-.76 0-.83 0-.94 0-1.81-.63-4.21-2.45l-1.28-1a95.07 95.07 0 0 0 -9.51-5.83c-2-1.12-3.88-2.18-4.94-2.89-3.6-2.4-10.1-2.22-13.21-1.19-2.42.81-7.79 4-11.58 7.34a100 100 0 0 0 -10.16 1.2c-8.82 1.77-12.49 1-12.51 1l-12.4-2.86-11.49-2.89a2 2 0 1 0 -1 3.88l9.55 2.41c-4.44 16.24-12.13 44.5-12.85 46.63a3 3 0 0 0 .32 2.57c1.74 2.85 9.53 4.32 12.75 4.8a1.51 1.51 0 0 0 .3 0 2 2 0 0 0 1.7-.94l2.7-4.31a6.31 6.31 0 0 0 1.09 1 7.08 7.08 0 0 0 7.52.48 6.38 6.38 0 0 0 .47 1.68 10.74 10.74 0 0 0 7.53 6 8.59 8.59 0 0 0 5.47-.54 9.24 9.24 0 0 0 2.73 4.69 9 9 0 0 0 9.54 2.52 6 6 0 0 0 3.67 3.7 9.79 9.79 0 0 0 3.08.51 11.43 11.43 0 0 0 6.78-2.5 5.54 5.54 0 0 0 2.09 1.86 6 6 0 0 0 2.73.63 9.09 9.09 0 0 0 2.83-.5 8 8 0 0 0 4.52-4.49c1.94.16 5.07.09 7.43-1.48a8.46 8.46 0 0 0 3.38-4.93 8.41 8.41 0 0 0 7.44-2c2.18-2.18 2.7-4.3 2.53-6a11.37 11.37 0 0 0 2.5-.49 13.22 13.22 0 0 0 6.67 6.59 15.57 15.57 0 0 0 6.42 1.41 11.8 11.8 0 0 0 5.25-1.14c9.2-4.62 10.83-17.95 4.82-39.6zm-60.56-22.42c2.6-.87 7.6-.7 9.73.72 1.19.79 3 1.84 5.21 3.05a93.47 93.47 0 0 1 9 5.49l1.26.95c2.68 2 4.3 3.27 6.63 3.27.47 0 11.6.14 14.3 11.83 3.13 13.55 2.36 23.71 1.34 25.06a4.69 4.69 0 0 1 -3.32 1.9 6.44 6.44 0 0 1 -2.33-.27 8.66 8.66 0 0 0 -.85-10.41c-2-2-28.75-24.93-32.71-27.91-5-3.74-9-2-11.87-.06-2.06 1.37-5.46 6.52-6.39 8.38-.51.8-4.4 3.81-7.73 3.75a3.38 3.38 0 0 1 -3.12-1.88c-.26-.45 1-2.11 2-3.45a45.36 45.36 0 0 0 2.8-4.09 19.1 19.1 0 0 0 2.21-4.71 7.36 7.36 0 0 1 1.5-2.76c2.49-3.45 9.75-8 12.34-8.86zm-51.32 56.12c-3.74-.68-7.28-1.74-8.4-2.53 1.58-5.32 10.47-38.09 12.73-46.42l8.91 2.1c-.27 4.91-1.19 19.34-2.7 24.64a79.35 79.35 0 0 1 -4.57 11.88 11 11 0 0 0 -1.74 3.62l-.16.2zm8.88-3.23a2 2 0 0 1 -.88-1.36 4.65 4.65 0 0 1 .7-2.58 17.5 17.5 0 0 1 3.13.75 4.12 4.12 0 0 1 2.09 2.25c-1.23.92-3.45 2.16-5.04.94zm14.07 7.44a6.78 6.78 0 0 1 -4.84-3.79 5.74 5.74 0 0 1 -.07-2.89l5.43-5.38c1.74-1.73 3.3-2.48 4.79-2.3a6.94 6.94 0 0 1 3.81 2.3c2.13 2.12 2.59 3.07-2.23 8.69l-.82.94c-.88.85-3.73 3.01-6.07 2.43zm10 5.17c-2.48-2.54-1.48-4.23-1.1-4.77l.12-.14c.49-.55 1-1.1 1.45-1.65 2.06-2.36 5.79-6.59 7.46-8.26a5.55 5.55 0 0 1 3.85-1.7 6.49 6.49 0 0 1 4.53 2.15c2.28 2.28 1.19 4.38.83 4.94l-10.27 10.29c-.72.52-3.65 2.32-6.83-.86zm11.64 5.25c-.91-.3-1.27-1.39-1.41-2.14l9.84-9.84a1.9 1.9 0 0 1 2.91 0c2 2 1.06 3.65.75 4.1a34.31 34.31 0 0 1 -3.57 4.47c-4.1 4.17-6.64 4.01-8.48 3.41zm15 0c-2.35.79-3-.2-3.21-.66a1.63 1.63 0 0 0 -.11-.23 34.82 34.82 0 0 0 2.52-3l2.75 1.94a3.87 3.87 0 0 1 -1.92 1.95zm24-19.18s-.1 0-.15 0l-17.15-13.92a2 2 0 0 0 -2.52 3.1l18.23 14.81a1 1 0 0 0 .17.12c.17.65.07 1.71-1.35 3.13-1.65 1.65-4.61.81-5.33.57l-17.02-11.33a2 2 0 0 0 -2.22 3.33l16.22 10.79a4.78 4.78 0 0 1 -1.86 3.1c-1.77 1.18-5 .88-6.14.66l-.09-.08-3.52-2.48a7.15 7.15 0 0 0 -2.06-7.43 5.87 5.87 0 0 0 -4.12-1.86 8 8 0 0 0 -2.57-5.81 10.38 10.38 0 0 0 -7.35-3.32 9.43 9.43 0 0 0 -6.65 2.88c-.26.25-.55.55-.88.9a9.32 9.32 0 0 0 -2.28-3.33 10.75 10.75 0 0 0 -6.18-3.44c-2.76-.34-5.49.82-8.12 3.44l-3.67 3.68a7.35 7.35 0 0 0 -3.84-3.21 23.3 23.3 0 0 0 -2.5-.6 82.49 82.49 0 0 0 3.74-10.3c1.6-5.59 2.53-19.7 2.83-25.1a49.93 49.93 0 0 0 11.89-1.21c1.61-.32 3.74-.58 5.63-.77a9.63 9.63 0 0 0 -1.14 2.54 15.51 15.51 0 0 1 -1.82 3.84c-.86 1.43-1.78 2.67-2.58 3.77-1.94 2.62-3.77 5.09-2.22 7.8a7.37 7.37 0 0 0 6.94 3.92c4.75-.14 9.92-3.92 10.93-5.93s4-6.16 5.05-6.87c2.52-1.68 4.42-2.19 7.25-.07 3.71 2.79 30.43 25.7 32.33 27.55a4.49 4.49 0 0 1 0 5.77c-2.11 2.06-5.86 1.37-5.89 1.36zm21.65 6.87c-2.14 1.07-5.44.94-8.21-.34a10.44 10.44 0 0 1 -2.74-1.83 8.15 8.15 0 0 0 1.18 0 8.69 8.69 0 0 0 6.45-3.42c2.88-3.59 2-17.57-.56-28.46-1.68-7.28-6-11-10-12.92.9-.23 12.5-2.85 16.62 12 5.49 19.57 4.54 31.33-2.75 34.97z"/></svg>