<?xml version="1.0"?>
<svg xmlns="http://www.w3.org/2000/svg" fill="#fff" viewBox="0 0 64 64" width="512" height="512"><g id="Loader"><path d="M38.035,50.136a4,4,0,0,0-2.07,7.728,3.981,3.981,0,0,0,3.034-.4,4,4,0,0,0-.964-7.327Zm.9,4.382A2.005,2.005,0,1,1,38.73,53,1.985,1.985,0,0,1,38.932,54.518Z"/><path d="M61.939,7.758a2.976,2.976,0,0,0-1.821-1.4L52.391,4.29a5.007,5.007,0,0,0-6.124,3.535l-1.036,3.864L24.947,6.253a1,1,0,0,0-1.224.707L19.84,21.45l-4.829-1.294a1,1,0,0,0-1.225.707L7.833,43.079l-.966-.259a3,3,0,1,0-1.554,5.8L29.065,54.98a8,8,0,1,0,12.751-7.362L51.8,10.344l6.761,1.811a3,3,0,0,0,3.374-4.4ZM29.947,26.229,28.1,33.117l-1.147-1.3a1,1,0,0,0-.751-.34.985.985,0,0,0-.32.053l-1.647.557,1.847-6.889Zm4.142-15.456,1.932.518L34.834,15.72l-.207-.358a1,1,0,0,0-.607-.466,1,1,0,0,0-.759.1l-.36.207ZM25.4,8.444l6.761,1.812-1.812,6.762a1,1,0,0,0,1.466,1.125l1.584-.915.914,1.584a1,1,0,0,0,.866.5.972.972,0,0,0,.131-.009,1,1,0,0,0,.835-.733l1.811-6.761,6.762,1.812L41.09,27.143,21.771,21.967Zm-9.937,13.9,8.693,2.329-2.33,8.694a1,1,0,0,0,1.286,1.206l2.785-.942,1.94,2.208a1,1,0,0,0,1.717-.4l2.329-8.693,8.694,2.329L36.02,46.066a8.041,8.041,0,0,0-5.4,3.119L9.765,43.6ZM5.124,45.459a1,1,0,0,1,1.226-.707L29.6,50.982a7.96,7.96,0,0,0-.327.948,8.13,8.13,0,0,0-.191.984l-23.25-6.23A1,1,0,0,1,5.124,45.459ZM42.8,55.553A6,6,0,1,1,38.553,48.2,6.006,6.006,0,0,1,42.8,55.553ZM60.308,9.516a1,1,0,0,1-1.225.708L52.321,8.412a2,2,0,0,0-2.449,1.414L40.019,46.6a7.165,7.165,0,0,0-1.933-.518L48.2,8.343a3,3,0,0,1,3.675-2.122L59.6,8.292a1,1,0,0,1,.707,1.224Z"/></g></svg>
