<svg viewBox="0 0 48 48" xmlns="http://www.w3.org/2000/svg"><g id="Support"><path d="m35 26v-6a11 11 0 0 0 -22 0v6a11 11 0 0 0 22 0zm-20 0v-6a9 9 0 0 1 18 0v6a9 9 0 0 1 -18 0z"/><path d="m40 18h-1.15a15 15 0 0 0 -29.7 0h-1.15a3 3 0 0 0 -3 3v6a3 3 0 0 0 3 3h3a1 1 0 0 0 1-1v-10a1 1 0 0 0 -.84-1 13 13 0 0 1 25.68 0 1 1 0 0 0 -.84 1v10a1 1 0 0 0 1 1 11 11 0 0 1 -9 10.81 2.48 2.48 0 0 0 -2.5-2.81h-2a2.5 2.5 0 0 0 0 5h2.5a13 13 0 0 0 13-13h1a3 3 0 0 0 3-3v-6a3 3 0 0 0 -3-3zm-30 10h-2a1 1 0 0 1 -1-1v-6a1 1 0 0 1 1-1h2zm13 12.5c0-.64.59-.5 2.5-.5a.5.5 0 0 1 0 1c-1.82 0-2.5.16-2.5-.5zm18-13.5a1 1 0 0 1 -1 1h-2v-8h2a1 1 0 0 1 1 1z"/><path d="m27.71 30.71a1 1 0 0 0 -1.42-1.42 3.23 3.23 0 0 1 -4.58 0 1 1 0 0 0 -1.42 0c-1.63 1.63 4 4.84 7.42 1.42z"/></g></svg>