<svg fill="none" height="512" viewBox="0 0 24 24" width="512" xmlns="http://www.w3.org/2000/svg"><g clip-rule="evenodd" fill="rgb(0,0,0)" fill-rule="evenodd"><path d="m12 11.6667c1.8409 0 3.3333-1.4924 3.3333-3.33337 0-1.84095-1.4924-3.33333-3.3333-3.33333s-3.33333 1.49238-3.33333 3.33333c0 1.84097 1.49243 3.33337 3.33333 3.33337zm0-1c1.2887 0 2.3333-1.0447 2.3333-2.33337 0-1.28866-1.0446-2.33333-2.3333-2.33333s-2.33333 1.04467-2.33333 2.33333c0 1.28867 1.04463 2.33337 2.33333 2.33337z"/><path d="m7.5 10.5c0 1.3807-1.11929 2.5-2.5 2.5s-2.5-1.1193-2.5-2.5c0-1.38071 1.11929-2.5 2.5-2.5s2.5 1.11929 2.5 2.5zm-1 0c0 .8284-.67157 1.5-1.5 1.5s-1.5-.6716-1.5-1.5c0-.82843.67157-1.5 1.5-1.5s1.5.67157 1.5 1.5z"/><path d="m1.5 19v-2c0-1.933 1.567-3.5 3.5-3.5 1.22483 0 2.3027.6292 2.92809 1.5819.72007-1.526 2.27271-2.5819 4.07191-2.5819s3.3518 1.0559 4.0719 2.5819c.6254-.9527 1.7033-1.5819 2.9281-1.5819 1.933 0 3.5 1.567 3.5 3.5v2c0 .2761-.2239.5-.5.5h-20c-.27614 0-.5-.2239-.5-.5zm1-2c0-1.3807 1.11929-2.5 2.5-2.5s2.5 1.1193 2.5 2.5v1.5h-5zm19 1.5v-1.5c0-1.3807-1.1193-2.5-2.5-2.5s-2.5 1.1193-2.5 2.5v1.5zm-6 0v-1.5c0-1.933-1.567-3.5-3.5-3.5s-3.5 1.567-3.5 3.5v1.5z"/><path d="m21.5 10.5c0 1.3807-1.1193 2.5-2.5 2.5s-2.5-1.1193-2.5-2.5c0-1.38071 1.1193-2.5 2.5-2.5s2.5 1.11929 2.5 2.5zm-1 0c0 .8284-.6716 1.5-1.5 1.5s-1.5-.6716-1.5-1.5c0-.82843.6716-1.5 1.5-1.5s1.5.67157 1.5 1.5z"/></g></svg>