<svg id="Capa_1" enable-background="new 0 0 607.77 607.77" height="512" viewBox="0 0 607.77 607.77" width="512" xmlns="http://www.w3.org/2000/svg"><g><g id="Page-1_74_"><g id="_x30_76---Engineering-Team"><path id="Shape_378_" d="m532.812 405.494c16.204-12.835 27.549-30.811 32.161-50.962h2.279c11.189 0 20.259-9.07 20.259-20.259v-20.259c0-11.189-9.07-20.259-20.259-20.259h-2.32c-8.265-28.821-31.134-51.135-60.149-58.69-3.204-7.407-10.498-12.206-18.567-12.216h-20.259c-8.07.011-15.364 4.81-18.567 12.216-5.233 1.133-10.328 2.831-15.194 5.065-9.529-32.209-38.031-55.134-71.535-57.536 16.176-12.83 27.501-30.786 32.111-50.911h2.279c11.189 0 20.259-9.07 20.259-20.259v-20.258c0-11.189-9.07-20.259-20.259-20.259h-2.32c-8.265-28.821-31.134-51.135-60.149-58.69-3.204-7.407-10.498-12.206-18.568-12.217h-20.259c-8.07.011-15.364 4.81-18.567 12.216-29.015 7.555-51.884 29.87-60.149 58.69h-2.32c-11.189 0-20.259 9.07-20.259 20.259v20.259c0 11.189 9.07 20.259 20.259 20.259h2.279c4.605 20.133 15.93 38.096 32.111 50.931-33.502 2.402-62.006 25.32-71.545 57.525-4.869-2.228-9.963-3.926-15.194-5.065-3.199-7.407-10.489-12.21-18.557-12.226h-20.259c-8.07.011-15.364 4.81-18.567 12.216-29.015 7.555-51.884 29.87-60.149 58.69h-2.32c-11.189 0-20.259 9.07-20.259 20.259v20.259c0 11.189 9.07 20.259 20.259 20.259h2.279c4.613 20.15 15.957 38.126 32.161 50.962-42.245 3.178-74.913 38.359-74.958 80.723v91.166c0 16.783 13.605 30.388 30.389 30.388h202.59c16.783 0 30.388-13.605 30.388-30.388v-91.166c-.045-42.364-32.713-77.545-74.958-80.722 3.998-3.165 7.725-6.658 11.142-10.444h208.668c3.417 3.785 7.144 7.278 11.142 10.444-42.245 3.177-74.913 38.358-74.958 80.722v91.166c0 16.783 13.605 30.388 30.388 30.388h202.59c16.783 0 30.388-13.605 30.388-30.388v-91.166c-.044-42.364-32.712-77.545-74.957-80.722zm4.052 60.463h-20.259v-40.518h10.13c3.396.02 6.784.325 10.13.912v39.606zm-81.036 0v-40.518h40.518v40.518zm-40.518-39.606c3.345-.586 6.733-.891 10.13-.912h10.129v40.518h-20.259zm60.777-21.171c-31.339-.04-58.946-20.623-67.928-50.648h135.857c-8.984 30.025-36.59 50.608-67.929 50.648zm91.165-70.907h-182.331v-20.259h182.331zm-283.626-91.165v-40.518h40.518v40.518zm-40.518-39.576c3.345-.592 6.733-.907 10.13-.942h10.13v40.518h-20.259v-39.576zm101.295-.942h10.129c3.397.035 6.785.35 10.13.942v39.576h-20.259zm121.554 40.518h20.259v20.259c0 5.594 4.535 10.13 10.13 10.13s10.129-4.535 10.129-10.13v-6.777c17.086 6.467 30.529 20.025 36.851 37.165h-134.398c6.372-17.076 19.759-30.601 36.77-37.145v6.756c0 5.594 4.535 10.13 10.129 10.13s10.13-4.535 10.13-10.13zm-51.985 8.944c-7.61 6.806-14.008 14.855-18.922 23.804v-12.49c-.022-7.205-3.882-13.853-10.129-17.443v-35.119c15.274 8.814 25.899 23.899 29.051 41.248zm-140.475-218.29v6.756c0 5.594 4.535 10.13 10.129 10.13s10.13-4.535 10.13-10.13v-20.259h20.259v20.259c0 5.594 4.535 10.13 10.13 10.13s10.129-4.535 10.129-10.13v-6.777c17.086 6.467 30.529 20.025 36.851 37.165h-134.399c6.372-17.076 19.76-30.6 36.771-37.144zm-60.777 57.404h182.331v20.259h-182.331zm23.237 40.518h135.857c-8.984 30.013-36.6 50.573-67.928 50.573s-58.945-20.561-67.929-50.573zm-13.108 79.121v35.119c-6.247 3.59-10.108 10.238-10.13 17.443v12.49c-4.914-8.955-11.316-17.008-18.932-23.814 3.165-17.346 13.791-32.425 29.062-41.238zm-121.554 45.806v6.756c0 5.594 4.535 10.13 10.13 10.13 5.594 0 10.129-4.535 10.129-10.13v-20.259h20.259v20.259c0 5.594 4.535 10.13 10.13 10.13s10.13-4.535 10.13-10.13v-6.777c17.086 6.467 30.529 20.025 36.851 37.165h-134.399c6.371-17.076 19.759-30.6 36.77-37.144zm-60.777 57.403h182.331v20.259h-182.331zm23.237 40.519h135.857c-8.984 30.013-36.6 50.573-67.928 50.573s-58.945-20.561-67.929-50.573zm128.706 111.424h-20.259v-40.518h10.13c3.396.02 6.784.325 10.13.912v39.606zm-40.518 0h-40.518v-40.518h40.518zm-81.036-39.606c3.345-.586 6.733-.891 10.13-.912h10.13v40.518h-20.26zm-50.648 151.031v-91.166c.029-21.684 11.61-41.71 30.389-52.552v35.109c-6.247 3.59-10.108 10.238-10.13 17.443v101.295h-10.13c-5.594 0-10.129-4.535-10.129-10.129zm40.518 10.129v-101.295h141.813v101.295zm182.331-101.295v91.166c0 5.594-4.535 10.13-10.129 10.13h-10.13v-101.296c-.022-7.205-3.882-13.853-10.13-17.443v-35.109c18.779 10.842 30.36 30.868 30.389 52.552zm-29.821-111.424c3.228-6.438 5.673-13.239 7.283-20.259h2.279c11.189 0 20.259-9.07 20.259-20.259v-20.259c-.022-7.205-3.882-13.853-10.129-17.443v-33.204h141.813v33.204c-6.247 3.59-10.108 10.238-10.129 17.443v20.259c0 11.189 9.07 20.259 20.259 20.259h2.279c1.61 7.02 4.055 13.821 7.283 20.259zm151.375 202.59v-91.166c.029-21.684 11.61-41.71 30.388-52.552v35.109c-6.247 3.59-10.108 10.238-10.129 17.443v101.295h-10.13c-5.594 0-10.129-4.535-10.129-10.129zm40.518 10.129v-101.295h141.813v101.295zm182.331-10.129c0 5.594-4.535 10.13-10.13 10.13h-10.13v-101.296c-.022-7.205-3.882-13.853-10.13-17.443v-35.109c18.779 10.842 30.359 30.868 30.389 52.552v91.166z"/></g></g></g></svg>