<svg id="Capa_1" enable-background="new 0 0 607.775 607.775" fill="#005aab" height="512" viewBox="0 0 607.775 607.775" width="512" xmlns="http://www.w3.org/2000/svg"><g><g id="Page-1_96_"><g id="_x30_99---Engineer-Management"><path id="Shape_507_" d="m374.794 141.818c0-39.161-31.746-70.907-70.906-70.907s-70.906 31.746-70.906 70.907 31.746 70.906 70.906 70.906c39.139-.05 70.856-31.766 70.906-70.906zm-121.554 0c0-27.972 22.676-50.648 50.647-50.648 27.972 0 50.647 22.676 50.647 50.648s-22.676 50.647-50.647 50.647c-27.958-.033-50.614-22.689-50.647-50.647z"/><path id="Shape_506_" d="m560.387 477.631c10.904-11.286 16.998-26.365 16.997-42.058-.024-3.396-.329-6.784-.912-10.129h11.041c5.594 0 10.13-4.535 10.13-10.13s-4.535-10.129-10.13-10.129h-10.13c.005-20.537-12.442-39.026-31.472-46.748-2.691-8.327-10.424-13.985-19.175-14.029v-10.129c0-16.783-13.605-30.389-30.389-30.389h-182.33v-20.715c1.114-.091 2.188-.152 3.343-.263 8.122-.944 14.622-7.179 15.903-15.255l2.137-13.016c9.069-2.553 17.796-6.192 25.992-10.839l10.768 7.719c6.678 4.874 15.799 4.646 22.224-.557 3.353-2.806 6.604-5.723 9.795-8.904 3.213-3.215 6.256-6.596 9.117-10.13 4.953-6.415 5.077-15.329.304-21.88l-7.729-10.788c4.647-8.196 8.286-16.923 10.839-25.992l12.996-2.137c8.09-1.3 14.333-7.815 15.285-15.954.952-8.926.952-17.928 0-26.853-.953-8.117-7.192-14.608-15.265-15.883l-13.016-2.137c-2.553-9.069-6.192-17.796-10.839-25.992l7.719-10.768c4.813-6.639 4.627-15.668-.456-22.103-2.798-3.47-5.791-6.777-8.965-9.907-3.215-3.213-6.596-6.256-10.129-9.117-6.408-4.973-15.336-5.097-21.88-.304l-10.788 7.729c-8.196-4.647-16.923-8.286-25.992-10.839l-2.117-13.006c-1.297-8.107-7.837-14.357-15.995-15.285-8.926-.952-17.928-.952-26.853 0-8.125.945-14.627 7.185-15.903 15.265l-2.137 13.016c-9.069 2.553-17.796 6.192-25.992 10.839l-10.727-7.719c-6.63-4.841-15.678-4.655-22.103.456-3.422 2.798-6.698 5.77-9.815 8.904-3.229 3.2-6.273 6.582-9.117 10.13-5.049 6.418-5.215 15.411-.405 22.011l7.729 10.788c-4.647 8.196-8.286 16.923-10.839 25.992l-12.996 2.137c-8.094 1.293-14.34 7.812-15.285 15.954-.476 4.428-.726 8.877-.75 13.33.008 4.51.252 9.017.729 13.503.955 8.107 7.183 14.591 15.245 15.873l13.016 2.137c2.553 9.069 6.192 17.796 10.839 25.992l-7.638 10.666c-4.871 6.647-4.718 15.725.375 22.204 2.829 3.458 5.835 6.768 9.005 9.917 3.181 3.171 6.432 6.078 10.13 9.117 6.404 4.983 15.339 5.107 21.88.304l10.788-7.729c8.196 4.647 16.923 8.286 25.992 10.839l2.137 12.996c1.293 8.094 7.812 14.34 15.954 15.285 1.134.111 2.147.081 3.252.172v20.796h-182.352c-16.783 0-30.389 13.605-30.389 30.389v10.129c-8.751.044-16.484 5.702-19.175 14.029-19.03 7.721-31.478 26.211-31.472 46.748h-10.13c-5.594 0-10.13 4.535-10.13 10.129s4.535 10.13 10.13 10.13h11.041c-.583 3.346-.888 6.734-.912 10.129-.001 15.693 6.093 30.772 16.997 42.058-27.679 6.275-47.342 30.856-47.386 59.237v40.518c0 16.783 13.605 30.388 30.389 30.388h121.554c16.783 0 30.389-13.605 30.389-30.388v-40.518c-.044-28.382-19.707-52.962-47.386-59.237 10.904-11.286 16.998-26.365 16.997-42.058-.024-3.396-.329-6.784-.912-10.129h11.041c5.594 0 10.13-4.535 10.13-10.13s-4.535-10.129-10.13-10.129h-10.13c.005-20.537-12.442-39.026-31.472-46.748-2.691-8.327-10.424-13.985-19.175-14.029v-10.129c0-5.594 4.535-10.13 10.13-10.13h182.331v20.259c-8.751.044-16.484 5.702-19.175 14.029-19.03 7.721-31.478 26.211-31.472 46.748h-10.13c-5.594 0-10.13 4.535-10.13 10.129s4.535 10.13 10.13 10.13h11.041c-.583 3.346-.888 6.734-.912 10.129-.001 15.693 6.093 30.772 16.997 42.058-27.679 6.275-47.342 30.856-47.386 59.237v40.518c0 16.783 13.605 30.388 30.389 30.388h121.554c16.783 0 30.388-13.605 30.388-30.388v-40.518c-.044-28.382-19.707-52.962-47.386-59.237 10.904-11.286 16.998-26.365 16.997-42.058-.024-3.396-.329-6.784-.912-10.129h11.041c5.594 0 10.13-4.535 10.13-10.13s-4.535-10.129-10.13-10.129h-10.129c.005-20.537-12.442-39.026-31.472-46.748-2.691-8.327-10.424-13.985-19.175-14.029v-20.259h182.331c5.594 0 10.129 4.535 10.129 10.13v10.129c-8.751.044-16.484 5.702-19.175 14.029-19.03 7.721-31.478 26.211-31.472 46.748h-10.128c-5.594 0-10.13 4.535-10.13 10.129s4.535 10.13 10.13 10.13h11.041c-.583 3.346-.888 6.734-.912 10.129-.001 15.693 6.093 30.772 16.997 42.058-27.679 6.275-47.342 30.856-47.386 59.237v40.518c0 16.783 13.605 30.388 30.388 30.388h121.554c16.783 0 30.389-13.605 30.389-30.388v-40.518c-.043-28.38-19.705-52.96-47.384-59.236zm-276.88-241.082c-11.401-2.498-22.26-7.023-32.06-13.361-3.496-2.255-8.016-2.142-11.396.284l-15.042 10.768c-2.401-2.026-4.751-4.204-7.03-6.483s-4.558-4.7-6.513-7.03l10.778-15.093c2.426-3.38 2.538-7.899.284-11.396-6.338-9.8-10.863-20.659-13.361-32.06-.89-4.048-4.156-7.146-8.245-7.82l-18.142-2.988c-.273-3.11-.446-6.311-.446-9.552s.172-6.483.446-9.572l18.142-2.988c4.09-.674 7.356-3.772 8.245-7.82 2.498-11.401 7.023-22.26 13.361-32.06 2.245-3.492 2.133-8-.284-11.375l-10.778-15.083c2.045-2.444 4.212-4.783 6.493-7.01 2.33-2.33 4.7-4.558 7.03-6.513l15.083 10.778c3.38 2.426 7.899 2.538 11.396.284 9.8-6.338 20.659-10.863 32.06-13.361 4.048-.89 7.146-4.156 7.82-8.245l2.988-18.142c6.37-.552 12.775-.552 19.145 0l2.988 18.142c.674 4.089 3.772 7.356 7.82 8.245 11.401 2.498 22.26 7.023 32.06 13.361 3.487 2.236 7.984 2.124 11.355-.284l15.063-10.778c2.401 2.026 4.751 4.234 7.091 6.594 2.25 2.2 4.386 4.512 6.402 6.929l-10.727 15.083c-2.426 3.38-2.538 7.899-.284 11.396 6.338 9.8 10.863 20.659 13.361 32.06.89 4.048 4.156 7.146 8.245 7.82l18.142 2.988c.273 3.13.446 6.331.446 9.572s-.172 6.493-.446 9.572l-18.142 2.988c-4.089.674-7.356 3.772-8.245 7.82-2.498 11.401-7.023 22.26-13.361 32.06-2.236 3.487-2.124 7.984.284 11.355l10.778 15.052c-2.026 2.401-4.214 4.751-6.493 7.02s-4.761 4.548-7.091 6.503l-15.022-10.747c-3.38-2.426-7.899-2.538-11.396-.284-9.8 6.338-20.659 10.863-32.06 13.361-4.048.89-7.146 4.156-7.82 8.245l-2.988 18.142c-6.369.567-12.776.567-19.145 0l-2.988-18.142c-.671-4.084-3.76-7.348-7.8-8.245v.01zm-153.239 188.895c.892 3.305 1.368 6.707 1.418 10.129 0 22.378-18.141 40.518-40.518 40.518s-40.518-18.14-40.518-40.518c.05-3.422.527-6.825 1.418-10.129zm-59.359 101.295v-30.389h40.518v30.388h-40.518zm-50.648 50.647v-40.518c.069-18.42 12.554-34.475 30.389-39.08v31.766c-6.247 3.59-10.108 10.238-10.13 17.443v40.518h-10.13c-5.593.001-10.129-4.534-10.129-10.129zm40.518 10.13v-40.518h60.777v40.518zm101.295-50.648v40.518c0 5.594-4.535 10.13-10.13 10.13h-10.13v-40.518c-.022-7.205-3.882-13.853-10.13-17.443v-31.766c17.837 4.605 30.321 20.66 30.39 39.079zm-50.647-151.942c3.131-.027 6.067-1.529 7.921-4.052 7.74 5.685 12.319 14.708 12.338 24.311h-81.036c.019-9.603 4.598-18.626 12.338-24.311 1.855 2.523 4.79 4.025 7.921 4.052 5.594 0 10.129-4.535 10.129-10.129v-10.13h20.259v10.13c0 5.594 4.536 10.129 10.13 10.129zm231.56 40.518c.892 3.305 1.368 6.707 1.418 10.129 0 22.378-18.141 40.518-40.518 40.518s-40.518-18.141-40.518-40.518c.05-3.422.527-6.825 1.418-10.129zm-59.359 101.295v-30.389h40.518v30.388h-40.518zm-50.647 50.647v-40.518c.069-18.42 12.554-34.475 30.388-39.08v31.766c-6.247 3.59-10.108 10.238-10.129 17.443v40.518h-10.13c-5.594.001-10.129-4.534-10.129-10.129zm40.518 10.13v-40.518h60.777v40.518zm101.295-50.648v40.518c0 5.594-4.535 10.13-10.129 10.13h-10.13v-40.518c-.022-7.205-3.882-13.853-10.129-17.443v-31.766c17.834 4.605 30.319 20.66 30.388 39.079zm-50.648-151.942c3.131-.027 6.067-1.529 7.921-4.052 7.74 5.685 12.319 14.708 12.338 24.311h-81.036c.019-9.603 4.598-18.626 12.338-24.311 1.854 2.523 4.79 4.025 7.921 4.052 5.594 0 10.13-4.535 10.13-10.129v-10.13h20.259v10.13c0 5.594 4.535 10.129 10.129 10.129zm172.202 141.813v-30.389h40.518v30.388h-40.518zm-20.259-91.166c.05-3.422.527-6.825 1.418-10.129h78.2c.892 3.305 1.368 6.707 1.418 10.129 0 22.378-18.141 40.518-40.518 40.518s-40.518-18.14-40.518-40.518zm12.338-54.699c1.855 2.523 4.79 4.025 7.921 4.052 5.594 0 10.129-4.535 10.129-10.129v-10.13h20.259v10.13c0 5.594 4.535 10.129 10.129 10.129 3.131-.027 6.067-1.529 7.921-4.052 7.74 5.685 12.319 14.708 12.338 24.311h-81.036c.02-9.603 4.599-18.626 12.339-24.311zm-42.727 196.512v-40.518c.069-18.42 12.554-34.475 30.388-39.08v31.766c-6.247 3.59-10.108 10.238-10.129 17.443v40.518h-10.13c-5.593.001-10.129-4.534-10.129-10.129zm40.518 10.13v-40.518h60.777v40.518zm101.295-10.13c0 5.594-4.535 10.13-10.13 10.13h-10.129v-40.518c-.022-7.205-3.882-13.853-10.13-17.443v-31.766c17.835 4.605 30.319 20.66 30.388 39.08v40.517z"/></g></g></g></svg>