<svg height="512pt" fill="#fff" viewBox="0 0 512 512" width="512pt" xmlns="http://www.w3.org/2000/svg"><path d="m256 0c-141.386719 0-256 114.613281-256 256s114.613281 256 256 256 256-114.613281 256-256c-.15625-141.320312-114.679688-255.84375-256-256zm0 486.402344c-127.246094 0-230.398438-103.15625-230.398438-230.402344s103.152344-230.398438 230.398438-230.398438 230.398438 103.152344 230.398438 230.398438c-.144532 127.1875-103.210938 230.253906-230.398438 230.402344zm0 0"/><path d="m217.597656 179.199219h-102.398437c-7.066407 0-12.800781 5.734375-12.800781 12.800781 0 7.070312 5.734374 12.800781 12.800781 12.800781h38.402343v115.199219c0 7.070312 5.730469 12.800781 12.800782 12.800781 7.066406 0 12.796875-5.730469 12.796875-12.800781v-115.199219h38.402343c7.066407 0 12.800782-5.730469 12.800782-12.800781-.003906-7.070312-5.734375-12.800781-12.804688-12.800781zm0 0"/><path d="m376.101562 180.175781c-4.785156-1.988281-10.296874-.890625-13.953124 2.773438l-42.148438 42.152343-42.148438-42.152343c-5-4.996094-13.105468-4.996094-18.101562.003906-2.402344 2.402344-3.75 5.65625-3.75 9.046875v128c0 7.070312 5.730469 12.800781 12.800781 12.800781 7.066407 0 12.800781-5.730469 12.800781-12.800781v-97.097656l29.347657 29.347656c4.996093 4.996094 13.09375 5 18.09375.007812.003906-.003906.003906-.003906.007812-.007812l29.351563-29.347656v97.097656c0 7.070312 5.730468 12.800781 12.800781 12.800781 7.066406 0 12.796875-5.730469 12.796875-12.800781v-128c.003906-5.175781-3.113281-9.84375-7.898438-11.824219zm0 0"/></svg>