<svg id="Capa_1" enable-background="new 0 0 512 512" fill="#fff" height="512" viewBox="0 0 512 512" width="512" xmlns="http://www.w3.org/2000/svg"><path d="m126.663 0-77.051 79.243v432.757h412.776v-512zm305.725 482h-352.776v-367.333h84.667v-84.667h268.109zm-346.206-397.333 48.097-49.465v49.465z"/><path d="m162.501 394.787-21.393-21.393-21.213 21.212 42.606 42.607 63.94-63.94-21.213-21.213z"/><path d="m256 390.333h138.666v30h-138.666z"/><path d="m208.167 223.257c-30.195 16.846-50.665 49.113-50.665 86.076v15h196.997v-15c0-36.963-20.47-69.23-50.665-86.076 16.226-13.658 26.562-34.101 26.562-56.92 0-41.022-33.374-74.396-74.396-74.396s-74.396 33.374-74.396 74.396c0 22.819 10.336 43.262 26.563 56.92zm92.229-56.92c0 24.48-19.916 44.396-44.396 44.396s-44.396-19.916-44.396-44.396 19.916-44.396 44.396-44.396 44.396 19.916 44.396 44.396zm-111.24 127.996c6.857-30.581 34.224-53.498 66.844-53.498s59.986 22.917 66.844 53.498z"/></svg>